<svg xmlns="http://www.w3.org/2000/svg" viewBox="0 0 200 220" width="400" height="440">
  <defs>
    <linearGradient id="pinGrad" x1="0%" y1="0%" x2="100%" y2="100%">
      <stop offset="0%" style="stop-color:#F5E27A"/>
      <stop offset="50%" style="stop-color:#D4AF37"/>
      <stop offset="100%" style="stop-color:#A07C10"/>
    </linearGradient>
    <style>
      .bg-blue { fill: #0D3692; }
    </style>
  </defs>
  <!-- Shadow: v3 bright gold -->
  <ellipse cx="100" cy="180" rx="88" ry="21" fill="#F5C842" fill-opacity="0.2" stroke="#F5C842" stroke-width="2.5"/>
  <path d="M 70,40 Q 60,40 60,50 L 60,110 Q 60,120 66,128 L 100,180 L 134,128 Q 140,120 140,110 L 140,50 Q 140,40 130,40 Z" class="bg-blue"/>
  <!-- Pins: v5 gradient -->
  <g fill="url(#pinGrad)">
    <rect x="75" y="26" width="10" height="14" rx="2"/>
    <rect x="115" y="26" width="10" height="14" rx="2"/>
    <rect x="75" y="120" width="10" height="14" rx="2"/>
    <rect x="115" y="120" width="10" height="14" rx="2"/>
    <rect x="46" y="55" width="14" height="10" rx="2"/>
    <rect x="46" y="95" width="14" height="10" rx="2"/>
    <rect x="140" y="55" width="14" height="10" rx="2"/>
    <rect x="140" y="95" width="14" height="10" rx="2"/>
  </g>
  <rect x="67" y="47" width="66" height="66" fill="#ffffff" rx="7"/>
  <circle cx="74" cy="54" r="4.5" class="bg-blue"/>
  <text x="102" y="96" font-family="Arial, Helvetica, sans-serif" font-weight="900" font-size="41" fill="#0D3692" text-anchor="middle" letter-spacing="2">IC</text>
</svg>
